<?xml version="1.0" standalone="no"?><!DOCTYPE svg PUBLIC "-//W3C//DTD SVG 1.1//EN" "http://www.w3.org/Graphics/SVG/1.1/DTD/svg11.dtd"><svg t="1665730254925" class="icon" viewBox="0 0 1024 1024" version="1.1" xmlns="http://www.w3.org/2000/svg" p-id="7351" xmlns:xlink="http://www.w3.org/1999/xlink" width="200" height="200"><path d="M724.98 317.817c-6.945-1.895-12.941-4.418-19.57-5.996a135.057 135.057 0 0 0-33.773-3.789c-3.156 0-3.785 0-3.785-3.469v-31.567c0-3.156 0-3.785-4.105-3.785h-87.113a17.365 17.365 0 0 1-19.887-19.57V165.68c0-3.469 0-4.418-4.418-4.418h-368.66c-3.789 0-4.734 0-4.734 4.734V860.08c0 4.1 0 4.732 5.046 4.732h479.45c3.473 0 5.051 0 4.734-4.732-0.313-4.736 0-15.154 0-23.043 0-2.525 0-3.158 3.473-3.158h50.188c2.523 0 2.84 0 2.84 3.158v56.5c-0.172 15.439-12.648 27.92-28.09 28.088H153.68a29.352 29.352 0 0 1-28.407-15.781 19.587 19.587 0 0 1-3.156-11.676 47.007 47.007 0 0 1 0-6.629V134.118a31.568 31.568 0 0 1 10.418-23.989 29.36 29.36 0 0 1 21.145-7.574h428.632a36.303 36.303 0 0 1 27.145 11.047c34.719 34.402 69.758 69.125 104.793 103.211a33.458 33.458 0 0 1 10.73 25.883v75.121z m0 0" fill="#FF9E12" p-id="7352"></path><path d="M673.531 792.531H461.109c-10.73 0-13.57-2.84-13.57-13.57v-27.777a14.187 14.187 0 0 1 4.734-10.729 337.739 337.739 0 0 1 105.735-68.182 329.159 329.159 0 0 1 42.297-13.254 19.272 19.272 0 0 1 13.258 0 131.404 131.404 0 0 0 46.398 12.311 142.031 142.031 0 0 0 75.75-12.943 20.216 20.216 0 0 1 12.941 0 340.688 340.688 0 0 1 77.332 31.564 336.192 336.192 0 0 1 70.387 52.08 11.35 11.35 0 0 1 3.785 8.838v29.982c0 10.104-3.473 11.996-12.309 11.996H673.531v-0.316z m3.789-444.73a96.902 96.902 0 0 1 78.594 44.192 110.483 110.483 0 0 1 15.465 94.691 5.364 5.364 0 0 0 1.895 6.312 17.052 17.052 0 0 1 6.629 19.254 16.096 16.096 0 0 1-13.574 13.254c-3.473 0-3.473 2.529-3.789 4.734a118.988 118.988 0 0 1-26.512 61.234 84.593 84.593 0 0 1-49.871 31.564 68.495 68.495 0 0 1-54.918-12.943 109.844 109.844 0 0 1-45.77-78.906c0-3.154 0-4.422-4.734-5.051a16.735 16.735 0 0 1-13.258-13.574 17.684 17.684 0 0 1 6.945-19.253c2.527 0 2.527-3.156 1.895-5.68-12.082-40.601 0.191-84.535 31.563-112.996a97.205 97.205 0 0 1 70.387-26.515l-0.947-0.317z m-306.797 59.34h107a11.37 11.37 0 0 1 11.336 3.793 11.355 11.355 0 0 1 1.668 11.84 11.355 11.355 0 0 1-9.847 6.777H264.152c-7.89 0-12.941-4.101-13.254-10.73a11.025 11.025 0 0 1 2.774-8.317 11.04 11.04 0 0 1 7.957-3.675h108.894v0.312z m0 102.266H477.84a11.365 11.365 0 0 1 8.527 2.523 11.379 11.379 0 0 1 4.098 7.896 11.998 11.998 0 0 1-10.102 12.307H264.152c-7.89 0-13.254-4.1-13.57-11.047a11.678 11.678 0 0 1 10.73-11.679h109.211z m0 102.265h105.739a23.79 23.79 0 0 1 6.625 0 12.315 12.315 0 0 1 7.578 12.625 12 12 0 0 1-10.735 9.473H264.152c-7.89 0-13.254-4.105-13.57-10.732-0.012-6.211 4.844-11.346 11.047-11.678h108.894v0.312z m0 0" fill="#1D92FF" p-id="7353"></path></svg>