<?xml version="1.0" standalone="no"?><!DOCTYPE svg PUBLIC "-//W3C//DTD SVG 1.1//EN" "http://www.w3.org/Graphics/SVG/1.1/DTD/svg11.dtd"><svg t="1665729450190" class="icon" viewBox="0 0 1024 1024" version="1.1" xmlns="http://www.w3.org/2000/svg" p-id="4546" xmlns:xlink="http://www.w3.org/1999/xlink" width="200" height="200"><path d="M371.147454 531.610275A284.3219 284.3219 0 0 1 227.564326 284.435674C227.564326 127.341851 354.906177 0 512 0s284.435674 127.341851 284.435674 284.435674a284.3219 284.3219 0 0 1-143.583128 247.174601c205.533218 58.67908 358.246732 242.566743 370.335248 463.914585h-0.085331a28.443567 28.443567 0 1 1-56.887135-0.142218C951.453117 757.338427 753.74188 568.871349 512 568.871349 270.229677 568.871349 72.461552 757.452201 57.756228 995.52486h-0.085331a28.443567 28.443567 0 1 1-56.68803-3.327897c13.453807-219.868776 165.68378-402.192044 370.164587-460.586688zM512 511.984214a227.548539 227.548539 0 1 0 0-455.097079 227.548539 227.548539 0 0 0 0 455.097079z" fill="#4D4A49" p-id="4547"></path><path d="M488.96071 637.989218l-112.864075 156.212072a28.443567 28.443567 0 0 0 0 33.307417l112.835632 156.240516a28.443567 28.443567 0 0 0 46.021692 0.142218l114.343141-156.240516a28.443567 28.443567 0 0 0 0-33.563409l-114.343141-156.240516a28.443567 28.443567 0 0 0-46.021692 0.142218z m102.112407 172.880002L512.142218 918.727228l-77.906931-107.858008 77.935374-107.858007 78.902456 107.858007z" fill="#F27233" p-id="4548"></path></svg>