<?xml version="1.0" standalone="no"?><!DOCTYPE svg PUBLIC "-//W3C//DTD SVG 1.1//EN" "http://www.w3.org/Graphics/SVG/1.1/DTD/svg11.dtd"><svg t="1665730080798" class="icon" viewBox="0 0 1024 1024" version="1.1" xmlns="http://www.w3.org/2000/svg" p-id="5917" xmlns:xlink="http://www.w3.org/1999/xlink" width="200" height="200"><path d="M639.488 793.6v-14.848c0-29.696 8.704-57.344 23.552-80.896h-9.216c-18.432 0-33.28-14.848-33.28-33.28s14.848-33.28 33.28-33.28h99.84c12.288-3.072 25.088-5.12 38.4-5.12 16.384 0 32.256 2.56 47.616 7.68V442.88c0-22.016-17.92-39.936-39.936-39.936h-179.2v-281.6c0-22.016-17.92-39.936-39.936-39.936H183.296c-22.016 0-39.936 17.92-39.936 39.936v686.592h-9.216c-22.016 0-39.936 17.92-39.936 39.936v52.736c0 22.016 17.92 39.936 39.936 39.936H752.64c-64.512-17.408-113.152-76.8-113.152-146.944z m14.336-303.104h107.008c18.432 0 33.28 14.848 33.28 33.28s-14.848 33.28-33.28 33.28h-107.008c-18.432 0-33.28-14.848-33.28-33.28s14.848-33.28 33.28-33.28z m-148.992 171.008c0 22.016-17.92 39.936-39.936 39.936H297.984c-22.016 0-39.936-17.92-39.936-39.936v-11.776c0-22.016 17.92-39.936 39.936-39.936h166.912c22.016 0 39.936 17.92 39.936 39.936v11.776z m0-195.072c0 22.016-17.92 39.936-39.936 39.936H297.984c-22.016 0-39.936-17.92-39.936-39.936v-11.776c0-22.016 17.92-39.936 39.936-39.936h166.912c22.016 0 39.936 17.92 39.936 39.936v11.776z m0-208.896c0 22.016-17.92 39.936-39.936 39.936H297.984c-22.016 0-39.936-17.92-39.936-39.936V245.76c0-22.016 17.92-39.936 39.936-39.936h166.912c22.016 0 39.936 17.92 39.936 39.936v11.776z" fill="#FFE2E4" p-id="5918"></path><path d="M800.768 916.992c-73.216 0-132.608-59.904-132.608-132.608 0-73.216 59.904-132.608 132.608-132.608 73.216 0 132.608 59.904 132.608 132.608 0 73.216-59.392 132.608-132.608 132.608z m65.536-103.424c-3.584-2.56-7.168-3.584-12.288-5.12-10.752-2.56-24.576-3.584-32.768-14.848 0 0-5.12-5.12 6.144-16.896 10.752-12.288 10.752-31.744 8.704-46.08-2.56-14.848-16.896-24.576-32.768-24.576-15.872 0-30.208 9.728-32.768 24.576s-1.024 34.304 8.704 46.08c10.752 12.288 6.144 16.896 6.144 16.896-8.704 10.752-22.016 12.288-32.768 14.848-5.12 1.024-8.704 2.56-12.288 5.12-7.168 3.584-3.584 36.352-3.584 36.352h132.608c-3.072 0-0.512-31.744-3.072-36.352z m0 0" fill="#D60213" p-id="5919"></path></svg>